<svg id="Layer_1" data-name="Layer 1" xmlns="http://www.w3.org/2000/svg" width="197.98mm" height="285.8mm" viewBox="0 0 561.19 810.16">
  <defs>
    <style>
      .cls-1 {
        fill: #ffffff;
      }
    </style>
  </defs>
  <title>Massless Pen SteamVR Graphic</title>
  <path class="cls-1" d="M577.73,54.28c-2-8.66-10.54-21-25.11-29.19C533.8,14.56,516.7,12.88,509,20.82c-2.3,2.39-126.93,183.55-240.92,353.84-44.19,66-116.49,175.08-210,319.79-3.15,4.89-5.06,7.83-5.24,8.1-3.45,5.05-6,9.86-8.72,19.44-1.41,4.91-7.8,26.47-14,47.31-6.41,21.62-12.47,42-12.8,43.37-.62,2.42-.84,7,4.51,10.5,2.82,1.85,4.84,2.84,7,2.84a10.06,10.06,0,0,0,4.64-1.37c3-1.54,35.68-28.45,62.62-50.75l1.21-1c2.18-1.8,4-4.14,6.42-7.37l.48-.63c1.6-2.1,162.26-240.48,304-450.81C497.45,181.67,574.52,67.32,576.57,64.35,578.28,61.88,578.68,58.4,577.73,54.28Zm-3.62,8.36C572,65.63,495,180,405.72,312.4,271.24,511.93,103.89,760.24,101.8,763.07l-.48.63a41.61,41.61,0,0,1-5.94,6.88l-1.21,1c-36.82,30.48-60,49.32-62.1,50.4-2.9,1.52-4.12,1.59-8.56-1.32-2.89-1.89-4-4.33-3.25-7.25.33-1.29,6.66-22.62,12.78-43.25,6.19-20.86,12.59-42.42,14-47.34,2.9-10.16,5.59-14.59,8.32-18.58.19-.28,1.67-2.57,5.28-8.16q14.57-22.55,28.44-43.92C75.46,675.8,69.66,691,69.58,691.22a.74.74,0,0,0,.44,1,.58.58,0,0,0,.26.05.74.74,0,0,0,.7-.48c.1-.27,10.33-27,35.55-64.86C130.44,591,139,582.62,149.91,572l2.19-2.14c3.54-3.48,6.82-6.21,10-8.86,7.38-6.16,14.35-12,23.11-25.8,6-9.56,71.68-108,135.14-203.23,67.72-101.58,137.73-206.62,140.21-210.9,2.95-5.09,9.36-17.83,5.27-26.27a.75.75,0,0,0-1.35.65c3.77,7.79-2.39,20-5.22,24.87-2.45,4.24-72.46,109.26-140.15,210.82C252.71,430.74,190,524.82,183.94,534.4c-8.63,13.63-15.52,19.37-22.8,25.45-3.2,2.66-6.51,5.42-10.09,8.94l-2.19,2.14c-8.49,8.29-15.6,15.24-29.59,34.78,65.35-100.29,116.89-177.92,151.34-229.38C384.74,205.83,507.93,26.71,511.19,22.91c5.48-5.68,20-6.4,40,4.8C564.92,35.41,573,46.94,574.81,55,575.57,58.23,575.32,60.88,574.11,62.64ZM143.83,650.78c15-21,25.57-39,29.1-49.36,1.48-4.33,1.35-8.26-.37-11.69-2.64-5.25-7.92-7.29-9.48-7.79-5.93-1.9-13.87-3-22.68,5.59s-17.54,21.75-33.54,45.84l-1,1.48c-12.76,19.21-21.8,36.57-24.2,46.46-1.69,7-.05,11.05,1.61,13.25a10.59,10.59,0,0,0,8.27,4.06c1,0,1.87.07,2.75.07,5.59,0,10.08-1.07,17.29-7.64C120,683.39,130.16,670,143.83,650.78ZM91.62,697.13a9.15,9.15,0,0,1-7.13-3.47c-2.11-2.79-2.58-6.94-1.35-12,2.36-9.72,11.32-26.91,24-46l1-1.48c15.94-24,24.72-37.22,33.33-45.6,8.25-8,15.65-7,21.19-5.23a15,15,0,0,1,8.59,7c1.53,3.06,1.63,6.6.29,10.53-3.48,10.23-14,28.08-28.91,49-13.6,19.1-23.71,32.46-32,40S97.8,697.35,91.62,697.13ZM100,728.19a.75.75,0,0,1-.74.75h-.51c-3.37,0-21.92-.17-30.76-3.83a24.2,24.2,0,0,1-13-12.89.76.76,0,0,1,.45-1,.75.75,0,0,1,1,.45,23.07,23.07,0,0,0,12.2,12c9.26,3.83,30.48,3.71,30.69,3.71h0A.76.76,0,0,1,100,728.19ZM507.65,112.4a.75.75,0,0,1-.75.74h-.62c-18.23,0-26.31,9.26-31.31,17.35-1.9,3.09-47.18,71.05-99.61,149.73-73.25,110-164.42,246.78-170,255.86l-1.26,2c-8.69,14-13.48,21.71-17.21,41.2-3.93,20.49-12.37,35.92-34.2,69.11a516.93,516.93,0,0,1-45.75,58.88.75.75,0,0,1-.55.24.76.76,0,0,1-.51-.2.76.76,0,0,1,0-1.06,515.1,515.1,0,0,0,45.59-58.69c21.71-33,30.11-48.32,34-68.56,3.79-19.76,8.63-27.56,17.42-41.71l1.26-2c5.64-9.1,96.81-145.94,170.08-255.9,52.41-78.67,97.68-146.62,99.58-149.69,4.8-7.77,13.39-18.06,32.6-18.06h.61A.75.75,0,0,1,507.65,112.4ZM30.81,820.47a.75.75,0,0,1-.47.95.67.67,0,0,1-.24,0,.74.74,0,0,1-.71-.51,7.27,7.27,0,0,0-3.16-3.73,6.84,6.84,0,0,0-4.13-1.3.77.77,0,0,1-.81-.69.75.75,0,0,1,.69-.81A8.38,8.38,0,0,1,27,816,8.76,8.76,0,0,1,30.81,820.47Zm450.63-714a10.7,10.7,0,0,0,2,.2,11.16,11.16,0,0,0,6.85-2.55c2.73-2,9.77-10.26,10.93-12.17a10.36,10.36,0,0,0,1.32-4.35V83.12a0,0,0,0,1,0,0,7,7,0,0,0-.51-3.26c-.91-2.13-2.92-3.54-6-4.19-6.67-1.43-10.78,3.29-12.24,5.39a67.43,67.43,0,0,0-5.13,10.15l-.84,1.89a9.46,9.46,0,0,0-.95,4s0,0,0,0v4.07C476.83,104,478.53,105.9,481.44,106.45Zm8-3.55a9.28,9.28,0,0,1-7.69,2.08,3.61,3.61,0,0,1-3.31-3.74v-.65a6,6,0,0,0,3,1.44,10.7,10.7,0,0,0,2,.2,11.21,11.21,0,0,0,6.85-2.54c2.6-2,9.11-9.51,10.72-11.86A8.85,8.85,0,0,1,500,91.15C498.85,93,492,101,489.4,102.9Zm-10.17-9.21.84-1.89a66.48,66.48,0,0,1,5-9.9c1.38-2,4.21-5,8.56-5a10.2,10.2,0,0,1,2.14.23c2.53.54,4.18,1.66,4.9,3.32,1,2.45-.19,5.44-.71,6.29-1.1,1.8-8,9.84-10.55,11.75a9.28,9.28,0,0,1-7.69,2.08,4,4,0,0,1-2.93-1.89C478.16,97.47,478.31,95.75,479.23,93.69Zm8-32.91c2.62,0,11-3.58,17.74-11.76s12.78-12.6,15.9-13.75a1.22,1.22,0,0,0,.46-2,5.65,5.65,0,0,0-3.7-1.66l-.56,0c-5.46,0-11.77,6.37-17.59,13.46-6,7.34-13.07,13.63-13.07,15.31C486.41,60.63,486.7,60.78,487.23,60.78ZM493,54.54c2.25-2.41,5.06-5.41,7.64-8.55,4.55-5.54,11.21-12.91,16.43-12.91a3.24,3.24,0,0,1,.44,0A4.34,4.34,0,0,1,520,34c-3.3,1.38-9.33,5.79-16.14,14-5.25,6.37-11.47,9.77-14.77,10.84C490.05,57.69,491.58,56.05,493,54.54Zm28.24-17.73a1.06,1.06,0,0,0-.48-.1c-3.32,0-12.63,10.5-12.63,10.5S502.23,57,504.68,58a2.87,2.87,0,0,0,1.12.22c4.66,0,11.75-9.89,11.75-9.89S524,38,521.24,36.81ZM516.3,47.52c-2.76,3.85-7.83,9.23-10.5,9.23h-.23c0-1.29,1.65-5.11,3.77-8.63,4-4.52,9.21-9.31,11.11-9.85C520.45,39.68,518.61,43.83,516.3,47.52Zm25.8-2.73a1.33,1.33,0,0,0,.93-2.13,10.28,10.28,0,0,0-8-3.78,7.94,7.94,0,0,0-1.56.14c-3.94.74-7.3,2.87-13.28,9.5C514.63,54.67,509,59.84,505,60.43a.49.49,0,0,0-.27.83,8.25,8.25,0,0,0,6.34,3.1c4.08,0,9.18-3,15.5-9.77C533.82,46.78,539.32,45.08,542.1,44.79Zm-31,18.07a6.28,6.28,0,0,1-4-1.44c3.62-1.38,8.31-5.3,14.25-11.89,6.08-6.75,9.16-8.42,12.43-9a7.65,7.65,0,0,1,1.29-.11,8.81,8.81,0,0,1,6.64,3c-3,.38-8.78,2.26-16.18,10.23C519.74,59.73,514.89,62.86,511.06,62.86Zm31.73-15.38a2.1,2.1,0,0,0-.95-.2c-4.09,0-12.16,8.86-12.16,8.86s-4.84,7-3.53,14.67,10.33,8.77,10.33,8.77c-.66-8.36,4-18.27,5.57-21.33S546.4,49.26,542.79,47.48Zm-2.07,10.09c-1.8,3.52-5.73,12.13-5.8,20.13-2.41-.71-6.5-2.57-7.29-7.14-1.12-6.51,2.75-12.73,3.24-13.49,3.17-3.47,8.63-8.29,11-8.29a.76.76,0,0,1,.29,0,1.44,1.44,0,0,1,.79.9C543.39,51.14,542.65,53.78,540.72,57.57Z" transform="translate(-17.05 -15.85)"/>
</svg>
